<?xml version="1.0" encoding="UTF-8"?>
<svg width="270px" height="113px" viewBox="0 0 270 113" version="1.1" xmlns="http://www.w3.org/2000/svg" xmlns:xlink="http://www.w3.org/1999/xlink">
    <!-- Generator: Sketch 54.1 (76490) - https://sketchapp.com -->
    <title>fundacao-bradesco</title>
    <desc>Created with Sketch.</desc>
    <defs>
        <polygon id="path-1" points="3.35096512e-05 0.122942857 36.630299 0.122942857 36.630299 25.8968932 3.35096512e-05 25.8968932"></polygon>
    </defs>
    <g id="Page-1" stroke="none" stroke-width="1" fill="none" fill-rule="evenodd">
        <g id="fundacao-bradesco">
            <rect id="Rectangle-Copy-4" fill-opacity="0" fill="#FFFFFF" x="0" y="0" width="271" height="113"></rect>
            <path d="M51.2547605,51.5201155 C51.3155805,51.813729 51.3457944,52.1368934 51.3457944,52.4596789 C51.3457944,52.812394 51.3155805,53.1355584 51.2547605,53.4878946 L45.8704167,53.4878946 L45.8704167,65.8825546 C45.4748899,65.9412773 45.0185431,66 44.5621962,66 C44.1058493,66 43.6801087,65.9412773 43.3457944,65.8825546 L43.3457944,50.7271694 C43.3457944,46.7620603 45.8095966,45 49.0036323,45 C49.9163261,45 50.7984136,45.1466174 51.2547605,45.2640628 C51.3155805,45.5580552 51.3457944,45.8808407 51.3457944,46.2040051 C51.3457944,46.5271694 51.3155805,46.8503338 51.2547605,47.1731192 C50.6461672,47.0265019 50.00736,46.9674003 49.2771265,46.9674003 C47.0872109,46.9674003 45.8704167,48.0838896 45.8704167,50.609724 L45.8704167,51.5201155 L51.2547605,51.5201155 Z" id="Fill-1" fill="#DF1C3F" fill-rule="nonzero"></path>
            <path d="M53.3457944,59.7561076 L53.3457944,52.1119624 C53.6678331,52.0563424 54.1654263,52 54.6045013,52 C55.0435764,52 55.4532035,52.0563424 55.7752422,52.1119624 L55.7752422,59.6719552 C55.7752422,62.7241958 57.2091262,64.1240874 59.9311649,64.1240874 C61.1019058,64.1240874 62.0680219,63.9839538 62.9167241,63.7882001 L62.9167241,52.1119624 C63.2387628,52.0563424 63.7069081,52 64.1459832,52 C64.5850582,52 65.0241332,52.0563424 65.3457944,52.1119624 L65.3457944,65.2159018 C63.64839,65.6637515 61.687465,66 59.7850582,66 C55.6287581,66 53.3457944,63.9001625 53.3457944,59.7561076" id="Fill-3" fill="#DF1C3F" fill-rule="nonzero"></path>
            <path d="M68.3457944,66.8802781 L68.3457944,52.8384398 C70.0268039,52.3591658 71.9687886,52 73.9111473,52 C78.0269285,52 80.3457944,54.2754892 80.3457944,58.7063594 L80.3457944,66.8802781 C80.0272401,66.940139 79.5340792,67 79.099619,67 C78.6647849,67 78.2591142,66.940139 77.940186,66.8802781 L77.940186,58.796344 C77.940186,55.5329557 76.4906145,54.0059217 73.7660779,54.0059217 C72.548692,54.0059217 71.563118,54.1557673 70.7517766,54.3654737 L70.7517766,66.8802781 C70.4328485,66.940139 69.9400614,67 69.5052273,67 C69.0703932,67 68.6647226,66.940139 68.3457944,66.8802781" id="Fill-5" fill="#DF1C3F" fill-rule="nonzero"></path>
            <path d="M92.934026,63.6859854 L92.934026,53.6199097 C92.2946357,53.4464146 91.4521096,53.3307512 90.4645401,53.3307512 C87.6461255,53.3307512 85.7864215,55.1821121 85.7864215,58.9131902 C85.7864215,62.1528854 87.4137562,64.062078 90.2898883,64.062078 C91.0746969,64.062078 91.9749405,63.9464146 92.934026,63.6859854 M83.3457944,58.9131902 C83.3457944,54.2855341 86.1346007,51.3928292 90.3483555,51.3928292 C91.2489739,51.3928292 92.1207335,51.4793902 92.934026,51.6819878 L92.934026,47.1405195 C92.934026,46.6491365 93.0794442,46.3596049 93.3699058,46.0995487 C93.9219703,45.6365219 94.6775453,45.2604293 95.3457944,45 L95.3457944,65.1321512 C94.0670137,65.5660756 92.1495923,66 90.2029372,66 C86.0772579,66 83.3457944,63.5415926 83.3457944,58.9131902" id="Fill-7" fill="#DF1C3F" fill-rule="nonzero"></path>
            <path d="M106.020594,64.7724138 L106.020594,59.8712644 C105.305769,59.7524904 104.559798,59.7229885 103.516592,59.7229885 C100.952988,59.7229885 99.6413864,60.4655172 99.6413864,62.3068966 C99.6413864,64.089272 100.893388,65.0693487 103.218203,65.0693487 C104.142592,65.0693487 105.394594,64.9210728 106.020594,64.7724138 M108.345794,57.8812261 L108.345794,66.2574713 C106.706196,66.7329502 104.888179,67 103.159371,67 C99.7901961,67 97.3457944,65.5743295 97.3457944,62.3666667 C97.3457944,59.5743295 99.6113937,57.940613 103.337789,57.940613 C104.500197,57.940613 105.215791,58 106.020594,58.1191571 L106.020594,57.5547893 C106.020594,55.089272 104.679769,53.9900383 102.294583,53.9900383 C101.012974,53.9900383 99.8201888,54.1386973 98.5381949,54.4950192 C98.4789786,54.1980843 98.4493704,53.8413793 98.4493704,53.4854406 C98.4493704,53.1586207 98.4789786,52.8318008 98.5381949,52.5643678 C99.6413864,52.208046 101.101798,52 102.383792,52 C105.990602,52 108.345794,53.7524904 108.345794,57.8812261" id="Fill-9" fill="#DF1C3F" fill-rule="nonzero"></path>
            <path d="M121.260658,65.8472814 C120.431778,66.2212211 119.517762,66.4228589 118.517873,66.480788 C118.917755,67.027401 119.174637,67.6319431 119.174637,68.3230075 C119.174637,70.0501114 117.889118,71 116.146222,71 C115.202721,71 114.488831,70.8276981 113.831697,70.539538 C113.803318,70.309307 113.774571,70.0790759 113.774571,69.7623226 C113.774571,69.4455693 113.803318,69.1577806 113.831697,68.9565141 C114.517578,69.2439315 115.117585,69.3880116 115.860592,69.3880116 C116.803355,69.3880116 117.403363,68.8413986 117.403363,67.9772896 C117.403363,67.4592698 117.231985,66.9698433 116.860481,66.480788 C113.288816,66.1061056 111.345794,63.4001485 111.345794,59.2545049 C111.345794,54.9365594 113.717445,52 117.631867,52 C119.003259,52 120.060643,52.2591956 121.032154,52.690693 C121.08928,52.9788531 121.117659,53.2956065 121.117659,53.6123598 C121.117659,53.9001485 121.08928,54.2744596 121.032154,54.5908416 C120.060643,54.1879373 119.11788,53.9573349 118.060127,53.9573349 C115.088838,53.9573349 113.745824,55.9150412 113.745824,59.2259117 C113.745824,62.5364109 115.060459,64.5516749 118.089243,64.5516749 C119.288521,64.5516749 120.317158,64.2924794 121.260658,63.9757261 C121.317784,64.2635148 121.345794,64.5806395 121.345794,64.8970215 C121.345794,65.2137748 121.317784,65.5591213 121.260658,65.8472814" id="Fill-11" fill="#DF1C3F" fill-rule="nonzero"></path>
            <path d="M132.020676,63.8669164 L132.020676,59.1736922 C131.305491,59.0599571 130.55993,59.0317068 129.516761,59.0317068 C126.953247,59.0317068 125.641691,59.7427347 125.641691,61.5059957 C125.641691,63.2127561 126.893648,64.1512542 129.218382,64.1512542 C130.142739,64.1512542 131.394697,64.0092687 132.020676,63.8669164 M124.926122,49.4464055 C124.866523,49.2471856 124.836147,48.9342306 124.836147,48.6498928 C124.836147,48.3655551 124.866523,48.1094676 124.926122,47.8533802 C125.5521,47.3701894 126.356875,47 127.25124,47 C127.847228,47 128.384,47.1992199 128.890397,47.4266901 C129.42717,47.6545272 130.023542,47.8819974 130.768718,47.8819974 C131.603485,47.8819974 132.408259,47.5690424 133.093837,47.0854848 C133.123829,47.312955 133.153436,47.5976596 133.153436,47.8819974 C133.153436,48.1663352 133.123829,48.4506729 133.093837,48.7067604 C132.437867,49.190318 131.662314,49.5315234 130.768718,49.5315234 C129.993935,49.5315234 129.367956,49.2754359 128.831183,49.0479657 C128.354009,48.8491127 127.817236,48.6498928 127.25124,48.6498928 C126.416474,48.6498928 125.582092,48.9624809 124.926122,49.4464055 M134.345794,57.2680789 L134.345794,65.2889721 C132.706253,65.7442795 130.887915,66 129.159168,66 C125.790495,66 123.345794,64.6348118 123.345794,61.5632302 C123.345794,58.8893545 125.612084,57.3249464 129.33758,57.3249464 C130.500332,57.3249464 131.215901,57.381814 132.020676,57.495916 L132.020676,56.9554908 C132.020676,54.5945701 130.679512,53.54197 128.294795,53.54197 C127.012846,53.54197 125.820487,53.6843223 124.538538,54.0255276 C124.478939,53.7411899 124.449332,53.3996177 124.449332,53.0587792 C124.449332,52.7458242 124.478939,52.4328693 124.538538,52.1767818 C125.641691,51.8355765 127.102051,51.6363566 128.384,51.6363566 C131.990684,51.6363566 134.345794,53.3144998 134.345794,57.2680789" id="Fill-13" fill="#DF1C3F" fill-rule="nonzero"></path>
            <path d="M146.012511,59.5147506 C146.012511,55.8612041 144.762384,53.9903706 142.345974,53.9903706 C139.984742,53.9903706 138.679078,55.9209726 138.679078,59.5147506 C138.679078,63.0495262 139.928847,65.0096294 142.317667,65.0096294 C144.734794,65.0096294 146.012511,63.1089116 146.012511,59.5147506 M136.345794,59.5147506 C136.345794,54.7623815 138.651488,52 142.345974,52 C146.151533,52 148.345794,54.7328804 148.345794,59.5147506 C148.345794,64.1778499 146.068048,67 142.317667,67 C138.623541,67 136.345794,64.2077342 136.345794,59.5147506" id="Fill-15" fill="#DF1C3F" fill-rule="nonzero"></path>
            <path d="M163.714675,49.9169007 C162.492206,49.9169007 161.303797,50.1895656 160.556316,50.564386 L160.556316,43 C159.368282,43.4427988 158.111376,44.0564827 157.058839,44.9082789 C156.515727,45.3510777 156.345794,45.7938766 156.345794,46.4413619 L156.345794,65.1140268 C157.466454,65.5910026 159.741835,66 161.914658,66 C167.416521,66 170.574506,62.6266166 170.574506,57.7539517 C170.574506,52.9154637 168.333186,49.9169007 163.714675,49.9169007 L163.714675,49.9169007 Z M207.929085,46.4413619 L207.929085,50.1553886 C207.181978,49.9510777 206.401185,49.9169007 205.722201,49.9169007 C201.069629,49.9169007 197.911269,53.0517962 197.911269,58.0607936 C197.911269,63.1715709 201.001506,66 205.823637,66 C208.030895,66 210.204466,65.6931581 212.139981,65.0460483 L212.139981,43 C210.951572,43.4427988 209.695041,44.0564827 208.642504,44.9082789 C208.099018,45.3510777 207.929085,45.7938766 207.929085,46.4413619 L207.929085,46.4413619 Z M189.081862,49.8489223 C187.41809,49.8147453 185.958313,50.0190562 184.531474,50.3600751 C184.260106,51.3140268 184.293793,52.7111528 184.531474,53.6992815 C186.297431,53.2902841 187.282219,53.2564827 188.402879,53.2564827 C190.57645,53.2564827 191.628987,54.1420803 191.628987,55.9482038 L191.628987,56.1183377 C190.984064,56.0503592 190.202896,55.9820052 189.65941,55.9820052 C186.059749,55.9820052 182.969513,57.2769758 182.969513,60.7525147 C182.969513,64.671228 185.753944,66 189.795656,66 C191.69711,66 193.768122,65.6593566 195.66995,65.0802253 L195.66995,56.2546702 C195.66995,52.0294905 193.394569,49.9510777 189.081862,49.8489223 L189.081862,49.8489223 Z M221.852366,49.8489223 C217.301978,49.8489223 214.517546,52.9154637 214.517546,58.0266166 C214.517546,63.1377694 217.471911,66 222.532098,66 C224.263993,66 226.131385,65.6931581 227.320168,65.1140268 C227.557475,64.1258981 227.557475,62.8309275 227.320168,61.8427988 C225.757832,62.2859732 224.433177,62.5586381 222.973026,62.5586381 C220.63027,62.5586381 218.999811,61.6726649 218.66032,59.1852547 L228.236833,59.1852547 C228.372705,58.8104344 228.406392,57.5496408 228.406392,57.0384879 C228.406392,52.4384879 225.82558,49.8489223 221.852366,49.8489223 L221.852366,49.8489223 Z M238.051403,56.4931581 L236.352821,55.7776943 C235.368407,55.3690725 234.791233,55.0280536 234.791233,54.3805683 C234.791233,53.3924396 235.673837,53.1881287 236.828184,53.1881287 C237.982905,53.1881287 239.172063,53.3244611 240.801399,53.835614 C241.005393,52.7111528 241.005393,51.6546702 240.801399,50.6665415 C239.783297,50.1212116 237.881095,49.8489223 236.216949,49.8489223 C232.957154,49.8489223 230.478153,51.6208687 230.478153,54.2784128 C230.478153,56.6636675 231.496628,57.8561071 234.349183,59.0147453 L235.673837,59.5600751 C236.929994,60.071228 237.303922,60.3776943 237.303922,61.1956891 C237.303922,62.4223057 236.081078,62.6266166 235.062602,62.6266166 C233.364769,62.6266166 232.074176,62.2859732 230.444091,61.7068419 C230.172722,62.694595 230.172722,63.9895656 230.444091,65.0118713 C231.836494,65.7615121 233.737948,66 235.74196,66 C238.967694,66 241.548505,64.2964076 241.548505,61.2294905 C241.548505,58.7082789 240.461907,57.5154637 238.051403,56.4931581 L238.051403,56.4931581 Z M251.15908,62.5244611 C249.053632,62.5244611 247.661229,60.8550457 247.661229,57.9244611 C247.661229,55.130209 248.782263,53.3244611 251.192767,53.3244611 C252.212366,53.3244611 252.925036,53.494595 253.875763,53.8694154 C254.147506,52.9154637 254.656931,51.8251796 255.369976,50.9050294 C254.045696,50.2237427 252.755103,49.8489223 250.649655,49.8489223 C245.997457,49.8489223 243.314461,53.1539517 243.314461,57.9244611 C243.314461,62.8651045 246.065206,66 250.819588,66 C252.551483,66 254.147506,65.6931581 255.438099,64.9776943 C254.860551,64.2280536 254.215255,63.2057479 253.841702,62.0133083 C252.653293,62.4902841 252.143868,62.5244611 251.15908,62.5244611 L251.15908,62.5244611 Z M262.943226,49.8489223 C258.222531,49.8489223 255.573971,53.0859732 255.573971,57.9586381 C255.573971,62.8992815 258.358402,66 262.943226,66 C267.697234,66 270.345794,62.8309275 270.345794,57.9586381 C270.345794,53.0517962 267.697234,49.8489223 262.943226,49.8489223 L262.943226,49.8489223 Z M181.305367,50.0532332 C179.302103,50.0532332 178.147756,50.8370509 177.060409,52.2338014 C176.958973,51.5183377 176.823102,50.9392064 176.58542,50.2237427 C176.177431,50.0874102 175.46476,50.0532332 174.853525,50.0532332 C174.275977,50.0532332 173.529245,50.1212116 173.155692,50.2237427 L173.155692,65.6593566 C173.664742,65.7956891 174.514033,65.8294905 175.26114,65.8294905 C175.973811,65.8294905 176.924537,65.7615121 177.366588,65.6593566 L177.366588,58.128772 C177.366588,55.130209 178.92855,53.528772 181.033998,53.528772 C181.407551,53.528772 182.052473,53.528772 182.426026,53.5971261 C182.663708,52.6086218 182.697769,51.1776943 182.493775,50.1895656 C182.256468,50.1212116 181.644858,50.0532332 181.305367,50.0532332 L181.305367,50.0532332 Z M218.66032,56.0845363 C218.96575,54.2104344 220.08641,53.0859732 221.784992,53.0859732 C223.686445,53.0859732 224.433177,54.3805683 224.5013,56.0845363 L218.66032,56.0845363 Z M262.943226,62.5924396 C260.600096,62.5924396 259.886677,60.6845363 259.886677,57.9586381 C259.886677,55.3007185 260.600096,53.2564827 262.943226,53.2564827 C265.35373,53.2564827 266.033088,55.2323645 266.033088,57.9586381 C266.033088,60.8208687 265.25192,62.5924396 262.943226,62.5924396 L262.943226,62.5924396 Z M207.929085,62.3197747 C207.216414,62.5244611 206.706615,62.5586381 206.129441,62.5586381 C203.344635,62.5586381 202.258411,60.7183377 202.258411,58.0607936 C202.258411,55.0964076 203.344635,53.2902841 206.095754,53.2902841 C206.910609,53.2902841 207.420409,53.3924396 207.929085,53.528772 L207.929085,62.3197747 Z M162.152714,62.5586381 C161.711038,62.5586381 161.032054,62.5586381 160.556316,62.3881287 L160.556316,53.9035924 C161.13349,53.5971261 161.948719,53.4266166 163.002005,53.4266166 C165.107453,53.4266166 166.227738,54.8917211 166.227738,57.6517962 C166.227738,60.5482038 164.903084,62.5586381 162.152714,62.5586381 L162.152714,62.5586381 Z M189.829717,62.694595 C187.893828,62.694595 186.840917,62.1154637 186.840917,60.7525147 C186.840917,59.3895656 187.893828,58.8446114 189.829717,58.8446114 C190.474265,58.8446114 191.221372,58.9125898 191.628987,58.9463912 L191.628987,62.5244611 C191.391305,62.5924396 190.338394,62.694595 189.829717,62.694595 L189.829717,62.694595 Z" id="Fill-17" fill="#DF1C3F" fill-rule="nonzero"></path>
            <g id="Group-21" transform="translate(0.345794, 31.000000)">
                <g id="Fill-19-Clipped">
                    <mask id="mask-2" fill="white">
                        <use xlink:href="#path-1"></use>
                    </mask>
                    <g id="path-1"></g>
                    <path d="M17.3196626,7.53922 C15.1897333,7.53922 12.8613495,7.73347714 10.560996,8.12236286 C12.8893798,5.15093429 16.5811576,3.23510571 20.698996,3.23510571 C23.7374808,3.23510571 26.7763394,4.37353429 28.8210566,6.06762 C29.1903091,6.37293429 29.4739758,6.40079143 29.7580162,6.12296286 C30.0420566,5.84513429 30.0136525,5.56767714 29.7012081,5.20664857 C27.0319758,2.12416286 23.1129657,0.0415628571 18.4842283,0.125134286 C12.4352889,0.236191429 7.29527879,4.04036286 5.33577374,9.31650571 C3.54669293,9.87179143 1.89963232,10.5381343 0.4514,11.3433914 C0.0537434343,11.5655057 -0.0882767677,11.8433343 0.0537434343,12.1765057 C0.195763636,12.48182 0.479430303,12.5928771 0.877086869,12.48182 C2.12686465,12.1207914 3.40467273,11.8154771 4.73928889,11.5376486 C4.59726869,12.2318486 4.51205657,12.9539057 4.51205657,13.70382 C4.3984404,18.56322 7.01123838,23.1726486 11.0438646,25.6994771 C11.4411475,25.9494486 11.781996,25.9494486 12.0092283,25.6441343 C12.2364606,25.3384486 12.2080566,25.0609914 11.8672081,24.7553057 C9.31159192,22.4784486 7.8913899,19.0906486 7.8913899,15.7307057 C7.8913899,14.0369914 8.23223838,12.39862 8.88553131,10.92702 C10.2201475,10.8159629 11.6683798,10.7323914 13.2586323,10.7323914 C23.5954606,10.7323914 32.3140061,14.1201914 32.3140061,18.56322 C32.3140061,20.81222 29.4455717,23.0615914 26.0378343,24.5610486 C25.2144909,24.9220771 25.1292788,25.1720486 25.2428949,25.5327057 C25.3565111,25.8662486 25.7253899,25.9773057 26.1514505,25.8383914 C32.1151778,23.8947057 36.630299,20.7011629 36.630299,16.8412771 C36.630299,11.5933629 28.1109556,7.53922 17.3196626,7.53922" id="Fill-19" fill="#DF1C3F" fill-rule="nonzero" mask="url(#mask-2)"></path>
                </g>
            </g>
            <path d="M21.5471236,54.0811793 L18.3457944,55.7934718 L18.3457944,66 L21.7703448,66 C22.0881712,66 22.3457944,65.7605261 22.3457944,65.4650903 L22.3457944,54.4652822 C22.3457944,54.0437501 21.9079523,53.8900362 21.5471236,54.0811793" id="Fill-22" fill="#DF1C3F" fill-rule="nonzero"></path>
            <path d="M17.3457944,56 L15.6378608,57.2063231 C15.4572608,57.332262 15.3457944,57.5310737 15.3457944,57.8225644 L15.3457944,65.6457267 C15.3457944,65.8411749 15.4749249,66 15.6345107,66 L17.3457944,66 L17.3457944,56 Z" id="Fill-24" fill="#DF1C3F" fill-rule="nonzero"></path>
        </g>
    </g>
</svg>